<svg xmlns="http://www.w3.org/2000/svg" xmlns:xlink="http://www.w3.org/1999/xlink" id="Camada_1" x="0px" y="0px" viewBox="0 0 2658.9 811.9" style="enable-background:new 0 0 2658.9 811.9;" xml:space="preserve"><style type="text/css">	.st0{fill:#FFFFFF;}	.st1{enable-background:new    ;}	.st2{fill:#007CE5;}</style><g>	<g id="Camada_1_1_">		<path class="st0" d="M1303.5,940.1"></path>		<g>			<path class="st0" d="M922.1,185.6c-4.8-4.1-11.9-9.5-19.6-12.6c-27.9-11.1-59.4-9.9-86,4.1c-9.8,5.1-17.1,11.2-17.1,17.8    l-0.4,2.8l-25.3,218c-8.8,60.2-55.2,129.7-57.8,133.5c-0.1,0.1-0.2,0.2-0.2,0.3c-60.2,76.3-124.4,111-155.8,125.2    c-18.6,8.4-78.2,9.9-111.3,10.1c-13.2,0.1-23.6-11.4-22-24.5c0-0.1,0-0.3,0.1-0.4l8-50.2c1.3-7.9,8-13.8,16.1-13.8    c93.1-0.8,134.3-30.3,136.8-32.2c0.1-0.1,0.2-0.1,0.3-0.2c46.5-28.6,82.2-95.3,82.3-95.4c13.5-26.6,21.8-71.7,22.9-76.2    c0-0.2,0.1-0.4,0.1-0.6c0,0,22.2-115.5,24.9-184.5c1.3-32.9-5.2-62.6-12-84.2c-6.9-21.8-21.3-45.2-25.2-49.6    c-17.5-19.5-40.7-33.4-63.3-43.3c-34-14.8-70.7-22.1-107.8-22.1H290.1c-33.5,0-36.4,72.1-37.2,79.8c0,0.3,0,0.5,0,0.8    c0,3,0.3,28.4,19.1,40.6c4,2.6,8.2,4.1,11.9,5c1.2,0.3,2.4,0.4,3.6,0.4l249.1,1.2c0.5,0,1.1,0.1,1.6,0.2    c50.8,12.1,52.4,47,52.4,47c5.2,65.8-23.8,201.9-36.9,232.8c-6.6,15.6-22,28.7-35.8,37.8c-13.6,9.1-29.3,14.6-45.6,16.2    c-9.7,1-16.6-6.1-15.5-15.8c6.2-51.8,17.7-110.6,24.1-165c1-7.1,0.1-12.4-2.1-16.5L334.3,396.2l-6.9,66.8    c-0.4,3.9-3.6,6.8-7.5,6.9l-73.2,1.2c-4.7,0.1-8.4-4-7.7-8.7l9.8-72.3c0.5-3.8,3.8-6.6,7.6-6.6h65.8l142.1-122.3    c-7.7-2.3-16-2.2-20.2-2.2c-1.3,0-2.6,0.1-3.9,0.1c-6.5-0.1-229.4-2.1-229.4-2.1h-2.4c-34.2,0.2-63.3,25.1-68.7,58.9    c-13.3,83.2-36.5,227.4-39.5,242.6c-3.8,18.4,19.2,33.9,25.7,37.9c0.5,0.3,1.9,0.5,3.2,0.7c1.8,0.2,3.7,0.3,5.5,0.3l165.9-0.7    c4.1,0,7.3,3.6,6.7,7.7c-10.6,56.3-21.2,112.6-31.8,168.9c-0.1,1-1.9,14.7,6.7,20.9c1.2,0.9,2.9,1.8,5.1,2.3    c49.2,12.1,143.6,28.2,255.2-0.4c166.5-42.6,261.2-156.3,292.3-197.9c1.6-2.1,3-4.3,4.3-6.5c33.1-57.1,52.8-113.9,61.9-169.8    c0-0.2,0.1-0.4,0.1-0.6l26-222.9C927.5,193.5,925.7,188.7,922.1,185.6L922.1,185.6z"></path>			<g>				<path class="st0" d="M88.4,222c0,0,2.6-10.9,12.4-13.1c9.8-2.2,104.1,0,104.1,0c1,0.2,6.2,1.1,9.4,5.9c1.9,2.9,2.2,5.8,2.2,7.2     l-10.4,104.4c-0.4,1.2-3.7,10.6-12.9,13.6c-3.8,1.2-7.1,1-9.2,0.6c-32.2-0.9-64.4-1.7-96.5-2.6c-3.8-1.1-10-3.7-12.7-9.4     c-2-4.3-1.3-8.5-1-10.2C75.6,307.8,80.9,271.6,88.4,222L88.4,222z"></path>				<path class="st0" d="M16.7,217.2c0,0,0.8-3.6,4.1-4.4c3.3-0.7,34.6,0,34.6,0s2.9,1.3,3.9,4.4l-3.4,34.7c0,0,0,1.4-3.8,4.5H14.7     c0,0-3.3-2-2.9-7.1S16.7,217.2,16.7,217.2L16.7,217.2z"></path>				<path class="st0" d="M57.7,130.8c0,0,1.3-5.5,6.2-6.6c4.9-1.1,52.1,0,52.1,0s4.4,2,5.8,6.6l-5.2,52.2c0,0,0,2.1-5.7,6.7H54.8     c0,0-4.9-3.1-4.4-10.7C51,171.4,57.7,130.8,57.7,130.8z"></path>				<path class="st0" d="M4.2,162.8c0,0,0.5-2.1,2.4-2.5c1.9-0.4,19.8,0,19.8,0s1.7,0.8,2.2,2.5l-2,19.9c0,0,0,0.8-2.2,2.6H3.1     c0,0-1.9-1.2-1.7-4.1C1.6,178.3,4.2,162.8,4.2,162.8L4.2,162.8z"></path>			</g>		</g>		<g>			<g class="st1">				<path class="st2" d="M960.9,506.5V398.4h14.5v95h46.5v13H960.9z"></path>				<path class="st2" d="M1092.5,509.2c-9.7,0-18-1.7-25-5.2c-7-3.5-12.8-8-17.3-13.6c-4.5-5.6-7.9-11.6-10.1-18.1     c-2.2-6.4-3.3-12.6-3.3-18.5v-3.3c0-6.4,1.1-12.9,3.4-19.4c2.3-6.5,5.7-12.5,10.4-17.8c4.6-5.4,10.4-9.7,17.4-13     c7-3.3,15.2-4.9,24.6-4.9c9.5,0,17.7,1.6,24.7,4.9c7,3.3,12.8,7.6,17.4,13c4.6,5.4,8.1,11.3,10.4,17.8c2.3,6.5,3.4,13,3.4,19.4     v3.3c0,5.9-1.1,12.1-3.3,18.5c-2.2,6.4-5.6,12.4-10.1,18.1c-4.5,5.6-10.3,10.2-17.3,13.6     C1110.5,507.4,1102.2,509.2,1092.5,509.2z M1092.5,495.8c6.3,0,12-1.2,17.1-3.6c5.1-2.4,9.4-5.6,13-9.7     c3.6-4.1,6.3-8.7,8.1-13.9c1.9-5.2,2.8-10.6,2.8-16.4c0-8-1.7-15.3-5-21.8c-3.3-6.6-8-11.8-14.1-15.8     c-6.1-3.9-13.4-5.9-21.9-5.9c-8.4,0-15.7,2-21.8,5.9c-6.2,3.9-10.9,9.2-14.2,15.8c-3.3,6.6-5,13.8-5,21.8     c0,5.7,0.9,11.2,2.8,16.4c1.9,5.2,4.6,9.8,8.1,13.9c3.6,4.1,7.9,7.3,13,9.7C1080.5,494.7,1086.2,495.8,1092.5,495.8z"></path>				<path class="st2" d="M1223.5,509.2c-9.9,0-18.3-1.7-25.2-5.2c-7-3.5-12.6-7.9-16.8-13.5c-4.2-5.5-7.4-11.5-9.3-18     c-2-6.5-3-12.7-3-18.7v-3.3c0-6.5,1-13,3-19.5c2-6.5,5.2-12.4,9.4-17.8c4.2-5.3,9.8-9.6,16.6-12.9c6.8-3.3,15-4.9,24.4-4.9     c14.4,0,25.8,3.7,34.1,11c8.3,7.4,13.2,17.1,14.6,29.4h-14.8c-1.3-9.2-5.1-16-11.3-20.4c-6.3-4.4-13.8-6.7-22.6-6.7     c-8.5,0-15.6,2-21.4,5.8c-5.8,3.9-10.1,9.1-13,15.7c-2.9,6.6-4.3,13.9-4.3,22c0,7.7,1.5,14.9,4.4,21.5c2.9,6.6,7.3,11.9,13.2,16     c5.9,4,13.2,6.1,22,6.1c9.3,0,17.1-2.3,23.4-7c6.3-4.6,10.2-11.3,11.5-20.1h14.8c-1,7.4-3.5,14.2-7.5,20.3     c-4,6.1-9.5,11-16.6,14.7C1242.2,507.3,1233.6,509.2,1223.5,509.2z"></path>				<path class="st2" d="M1286.3,506.5l38.9-108.1h24.6l40.1,108.1h-15l-11.8-32.3h-50.8l-11.5,32.3H1286.3z M1316.9,461.2h41.3     l-18.2-49.7h-5.5L1316.9,461.2z"></path>				<path class="st2" d="M1457.7,509.2c-9.9,0-18.3-1.7-25.2-5.2c-7-3.5-12.6-7.9-16.8-13.5c-4.2-5.5-7.4-11.5-9.3-18     c-2-6.5-3-12.7-3-18.7v-3.3c0-6.5,1-13,3-19.5c2-6.5,5.2-12.4,9.4-17.8c4.2-5.3,9.8-9.6,16.6-12.9c6.8-3.3,15-4.9,24.4-4.9     c14.4,0,25.8,3.7,34.1,11c8.3,7.4,13.2,17.1,14.6,29.4h-14.8c-1.3-9.2-5.1-16-11.3-20.4c-6.3-4.4-13.8-6.7-22.6-6.7     c-8.5,0-15.6,2-21.4,5.8c-5.8,3.9-10.1,9.1-13,15.7c-2.9,6.6-4.3,13.9-4.3,22c0,7.7,1.5,14.9,4.4,21.5c2.9,6.6,7.3,11.9,13.2,16     c5.9,4,13.2,6.1,22,6.1c9.3,0,17.1-2.3,23.4-7c6.3-4.6,10.2-11.3,11.5-20.1h14.8c-1,7.4-3.5,14.2-7.5,20.3     c-4,6.1-9.5,11-16.6,14.7C1476.4,507.3,1467.8,509.2,1457.7,509.2z M1456.9,543.2c-3.9,0-7.5-0.5-10.7-1.5v-10.1     c3.3,1,6.8,1.5,10.7,1.5c3.4,0,5.9-0.5,7.5-1.6c1.7-1,2.5-2.3,2.5-3.9c0-3.3-2.9-4.9-8.7-4.9h-5.9V505h9.5v8.7     c4.7,0.6,8.5,2,11.3,4.4c2.8,2.3,4.2,5.4,4.2,9.3c0,4.3-1.8,8.1-5.4,11.2C1468.3,541.7,1463.3,543.2,1456.9,543.2z"></path>				<path class="st2" d="M1520.5,506.5l38.9-108.1h24.6l40.1,108.1h-15l-11.8-32.3h-50.8l-11.5,32.3H1520.5z M1584.3,386.3     c-2.7,0-5-0.3-6.9-1c-1.9-0.7-3.7-1.5-5.3-2.4c-1.6-0.9-3.2-1.7-4.8-2.4c-1.6-0.7-3.6-1-5.8-1c-2.4,0-4.7,0.5-6.9,1.6     c-2.2,1-4,2.5-5.4,4.4l-2.7-9.2c1.4-2,3.4-3.7,6.1-5c2.7-1.4,5.7-2.1,9.2-2.1c2.7,0,5,0.3,6.9,1c1.9,0.7,3.7,1.5,5.3,2.4     c1.6,0.9,3.2,1.7,4.9,2.4c1.7,0.7,3.6,1,5.8,1c2.4,0,4.7-0.5,6.9-1.6s4-2.5,5.4-4.4l2.7,9.2c-1.5,2-3.5,3.7-6.1,5     C1590.8,385.6,1587.8,386.3,1584.3,386.3z M1551.2,461.2h41.3l-18.2-49.7h-5.5L1551.2,461.2z"></path>				<path class="st2" d="M1693.4,509.2c-9.7,0-18-1.7-25-5.2c-7-3.5-12.8-8-17.3-13.6c-4.5-5.6-7.9-11.6-10.1-18.1     c-2.2-6.4-3.3-12.6-3.3-18.5v-3.3c0-6.4,1.1-12.9,3.4-19.4c2.3-6.5,5.7-12.5,10.4-17.8c4.6-5.4,10.4-9.7,17.4-13     c7-3.3,15.2-4.9,24.7-4.9c9.5,0,17.7,1.6,24.7,4.9c7,3.3,12.8,7.6,17.4,13c4.6,5.4,8.1,11.3,10.4,17.8c2.3,6.5,3.4,13,3.4,19.4     v3.3c0,5.9-1.1,12.1-3.3,18.5c-2.2,6.4-5.6,12.4-10.1,18.1c-4.5,5.6-10.3,10.2-17.3,13.6     C1711.4,507.4,1703.1,509.2,1693.4,509.2z M1693.4,495.8c6.3,0,12-1.2,17.1-3.6c5.1-2.4,9.4-5.6,13-9.7     c3.6-4.1,6.3-8.7,8.1-13.9c1.9-5.2,2.8-10.6,2.8-16.4c0-8-1.7-15.3-5-21.8c-3.3-6.6-8-11.8-14.1-15.8     c-6.1-3.9-13.4-5.9-21.9-5.9c-8.4,0-15.7,2-21.8,5.9c-6.2,3.9-10.9,9.2-14.2,15.8c-3.3,6.6-5,13.8-5,21.8     c0,5.7,0.9,11.2,2.8,16.4c1.9,5.2,4.6,9.8,8.1,13.9c3.6,4.1,7.9,7.3,13,9.7C1681.4,494.7,1687.1,495.8,1693.4,495.8z"></path>			</g>			<g class="st1">				<path class="st2" d="M960.9,684.2V576.1h62.5v13h-48v33.6h44.9v13h-44.9v35.4h49.4v13H960.9z"></path>				<path class="st2" d="M1121.7,715.4c-5.3,0-10-0.8-13.9-2.3c-3.9-1.5-7-4.2-9.2-7.9c-2.2-3.8-3.3-8.9-3.3-15.4v-3.3     c-8.6-0.8-16-3-22.2-6.7c-6.2-3.7-11.3-8.2-15.3-13.6c-4-5.4-7-11.1-9-17.2c-2-6.1-3-11.9-3-17.5v-3.3c0-6.4,1.1-12.9,3.4-19.4     c2.3-6.5,5.7-12.5,10.4-17.8c4.6-5.4,10.4-9.7,17.4-13c7-3.3,15.2-4.9,24.6-4.9c9.5,0,17.7,1.6,24.7,4.9c7,3.3,12.8,7.6,17.4,13     c4.6,5.4,8.1,11.3,10.4,17.8c2.3,6.5,3.4,13,3.4,19.4v3.3c0,5.5-1,11.3-2.9,17.4c-1.9,6.1-4.9,11.8-8.9,17.2     c-4,5.4-9.1,9.9-15.2,13.6c-6.2,3.7-13.4,6-21.8,6.9v5.5c0,3.3,1,5.8,2.9,7.7c1.9,1.9,4.5,2.8,7.6,2.8h18.4v12.9H1121.7z      M1101.7,673.5c6.3,0,12-1.2,17.1-3.6c5.1-2.4,9.4-5.6,13-9.7c3.6-4.1,6.3-8.7,8.1-13.9c1.9-5.2,2.8-10.6,2.8-16.4     c0-8-1.7-15.3-5-21.8c-3.3-6.6-8-11.8-14.1-15.8c-6.1-3.9-13.4-5.9-21.9-5.9c-8.4,0-15.7,2-21.8,5.9     c-6.2,3.9-10.9,9.2-14.2,15.8c-3.3,6.6-5,13.8-5,21.8c0,5.7,0.9,11.2,2.8,16.4c1.9,5.2,4.6,9.8,8.1,13.9c3.6,4.1,7.9,7.3,13,9.7     C1089.7,672.3,1095.4,673.5,1101.7,673.5z"></path>				<path class="st2" d="M1228.6,686.8c-9.8,0-18-1.9-24.7-5.7c-6.7-3.8-11.7-9.1-15.1-16c-3.4-6.9-5.1-14.8-5.1-23.9v-65.1h14.5     V643c0,9.1,2.6,16.4,7.8,22.1c5.2,5.6,12.7,8.4,22.5,8.4c9.7,0,17.1-2.8,22.4-8.4c5.2-5.6,7.8-13,7.8-22.1v-66.9h14.5v65.1     c0,9.1-1.7,17.1-5,23.9c-3.4,6.9-8.3,12.2-15,16C1246.7,684.9,1238.4,686.8,1228.6,686.8z"></path>				<path class="st2" d="M1307.3,684.2V576.1h14.5v108.1H1307.3z"></path>				<path class="st2" d="M1357.9,684.2V575.5h33c13.2,0,23.3,3.1,30.1,9.3c6.9,6.2,10.3,14.5,10.3,25.1v2.4c0,10.5-3.4,18.8-10.3,25     c-6.9,6.2-16.9,9.3-30.1,9.3h-18.5v37.6H1357.9z M1393.6,588.2h-21.2v45.6h21.2c7.6,0,13.3-2.2,17.2-6.6     c3.8-4.4,5.8-9.8,5.8-16.2c0-6.5-1.9-11.9-5.8-16.3C1407,590.4,1401.2,588.2,1393.6,588.2z"></path>				<path class="st2" d="M1437.9,684.2l38.9-108.1h24.6l40.1,108.1h-15l-11.8-32.3H1464l-11.5,32.3H1437.9z M1468.5,638.9h41.3     l-18.2-49.7h-5.5L1468.5,638.9z"></path>				<path class="st2" d="M1565.8,684.2V576.1h19.2l32,72.1h2.4l31.8-72.1h19.4v108.1h-14.5v-89.6l-29.6,67.2h-17.8l-29.6-66.9v89.3     H1565.8z"></path>				<path class="st2" d="M1706.5,684.2V576.1h62.5v13h-48v33.6h44.9v13H1721v35.4h49.4v13H1706.5z"></path>				<path class="st2" d="M1799.7,684.2V576.1h23.7l54.9,95h1.8v-95h13.9v108.1h-24l-54.9-95h-1.8v95H1799.7z"></path>				<path class="st2" d="M1950.9,684.2v-95H1918v-13h80.2v13h-32.9v95H1950.9z"></path>				<path class="st2" d="M2067.4,686.8c-9.7,0-18-1.7-25-5.2c-7-3.5-12.8-8-17.3-13.6c-4.5-5.6-7.9-11.6-10.1-18.1     c-2.2-6.4-3.3-12.6-3.3-18.5v-3.3c0-6.4,1.1-12.9,3.4-19.4c2.3-6.5,5.7-12.5,10.4-17.8c4.6-5.4,10.4-9.7,17.4-13     c7-3.3,15.2-4.9,24.7-4.9c9.5,0,17.7,1.6,24.7,4.9c7,3.3,12.8,7.6,17.4,13c4.6,5.4,8.1,11.3,10.4,17.8c2.3,6.5,3.4,13,3.4,19.4     v3.3c0,5.9-1.1,12.1-3.3,18.5c-2.2,6.4-5.6,12.4-10.1,18.1c-4.5,5.6-10.3,10.2-17.3,13.6     C2085.4,685.1,2077.1,686.8,2067.4,686.8z M2067.4,673.5c6.3,0,12-1.2,17.1-3.6c5.1-2.4,9.4-5.6,13-9.7     c3.6-4.1,6.3-8.7,8.1-13.9c1.9-5.2,2.8-10.6,2.8-16.4c0-8-1.7-15.3-5-21.8c-3.3-6.6-8-11.8-14.1-15.8     c-6.1-3.9-13.4-5.9-21.9-5.9c-8.4,0-15.7,2-21.8,5.9c-6.2,3.9-10.9,9.2-14.2,15.8c-3.3,6.6-5,13.8-5,21.8     c0,5.7,0.9,11.2,2.8,16.4c1.9,5.2,4.6,9.8,8.1,13.9c3.6,4.1,7.9,7.3,13,9.7C2055.4,672.3,2061.1,673.5,2067.4,673.5z"></path>				<path class="st2" d="M2186.6,686.8c-9,0-16.6-1.5-22.9-4.4c-6.3-3-11.2-7.1-14.5-12.3c-3.4-5.2-5-11.2-5-17.8h14.5     c0,3.3,0.9,6.5,2.6,9.8c1.7,3.3,4.6,6,8.7,8.1c4.1,2.2,9.6,3.3,16.7,3.3c6.5,0,11.8-1,16-2.9s7.2-4.4,9.2-7.5     c2-3.1,3-6.5,3-10.1c0-4.4-1.9-8.1-5.8-11c-3.8-2.9-9.5-4.7-16.9-5.4l-12-1c-9.6-0.8-17.2-3.8-22.9-8.9     c-5.7-5.1-8.6-11.9-8.6-20.3c0-6.6,1.6-12.4,4.8-17.3c3.2-4.9,7.7-8.8,13.4-11.6c5.7-2.8,12.4-4.2,20-4.2     c7.5,0,14.1,1.4,19.8,4.1c5.7,2.8,10.2,6.6,13.4,11.6c3.2,5,4.8,10.9,4.8,17.8h-14.5c0-3.5-0.8-6.7-2.4-9.8     c-1.6-3.1-4.2-5.6-7.6-7.6c-3.5-2-7.9-3-13.5-3c-5.3,0-9.7,0.9-13.3,2.8c-3.5,1.9-6.1,4.3-7.8,7.3c-1.7,3-2.6,6.2-2.6,9.7     c0,3.9,1.5,7.5,4.6,10.5c3.1,3.1,7.6,4.8,13.6,5.3l12,1c11.1,1,19.8,4,26.3,9.1c6.5,5.1,9.7,12,9.7,20.7     c0,6.6-1.8,12.5-5.3,17.6c-3.6,5.1-8.5,9.1-15,12C2202.5,685.4,2195.1,686.8,2186.6,686.8z"></path>				<path class="st2" d="M2296.1,684.8V575.5h37c9.8,0,18.3,1.5,25.5,4.5c7.2,3,13.2,7.1,18,12.1c4.8,5.1,8.4,10.8,10.7,17     c2.4,6.3,3.6,12.7,3.6,19.2v3.3c0,6.3-1.2,12.6-3.6,19c-2.4,6.3-5.9,12-10.7,17.2c-4.8,5.1-10.8,9.3-18,12.4     c-7.2,3.1-15.7,4.7-25.5,4.7H2296.1z M2334.6,588.8h-24v82.6h24c8.7,0,16.1-1.8,22.3-5.5c6.2-3.7,10.9-8.6,14.2-14.9     c3.3-6.3,5-13.3,5-21.1c0-8.1-1.7-15.2-5-21.4c-3.3-6.2-8-11-14.2-14.5C2350.7,590.6,2343.3,588.8,2334.6,588.8z"></path>				<path class="st2" d="M2417.7,684.2V576.1h62.5v13h-48v33.6h44.9v13h-44.9v35.4h49.4v13H2417.7z"></path>				<path class="st2" d="M2570.2,684.2v-95h-32.9v-13h80.2v13h-32.9v95H2570.2z"></path>				<path class="st2" d="M2641.8,684.2V576.1h14.5v108.1H2641.8z"></path>			</g>			<g class="st1">				<path class="st0" d="M960.9,506.5V398.4h14.5v95h46.5v13H960.9z"></path>				<path class="st0" d="M1092.5,509.2c-9.7,0-18-1.7-25-5.2c-7-3.5-12.8-8-17.3-13.6c-4.5-5.6-7.9-11.6-10.1-18.1     c-2.2-6.4-3.3-12.6-3.3-18.5v-3.3c0-6.4,1.1-12.9,3.4-19.4c2.3-6.5,5.7-12.5,10.4-17.8c4.6-5.4,10.4-9.7,17.4-13     c7-3.3,15.2-4.9,24.6-4.9c9.5,0,17.7,1.6,24.7,4.9c7,3.3,12.8,7.6,17.4,13c4.6,5.4,8.1,11.3,10.4,17.8c2.3,6.5,3.4,13,3.4,19.4     v3.3c0,5.9-1.1,12.1-3.3,18.5c-2.2,6.4-5.6,12.4-10.1,18.1c-4.5,5.6-10.3,10.2-17.3,13.6     C1110.5,507.4,1102.2,509.2,1092.5,509.2z M1092.5,495.8c6.3,0,12-1.2,17.1-3.6c5.1-2.4,9.4-5.6,13-9.7     c3.6-4.1,6.3-8.7,8.1-13.9c1.9-5.2,2.8-10.6,2.8-16.4c0-8-1.7-15.3-5-21.8c-3.3-6.6-8-11.8-14.1-15.8     c-6.1-3.9-13.4-5.9-21.9-5.9c-8.4,0-15.7,2-21.8,5.9c-6.2,3.9-10.9,9.2-14.2,15.8c-3.3,6.6-5,13.8-5,21.8     c0,5.7,0.9,11.2,2.8,16.4c1.9,5.2,4.6,9.8,8.1,13.9c3.6,4.1,7.9,7.3,13,9.7C1080.5,494.7,1086.2,495.8,1092.5,495.8z"></path>				<path class="st0" d="M1223.5,509.2c-9.9,0-18.3-1.7-25.2-5.2c-7-3.5-12.6-7.9-16.8-13.5c-4.2-5.5-7.4-11.5-9.3-18     c-2-6.5-3-12.7-3-18.7v-3.3c0-6.5,1-13,3-19.5c2-6.5,5.2-12.4,9.4-17.8c4.2-5.3,9.8-9.6,16.6-12.9c6.8-3.3,15-4.9,24.4-4.9     c14.4,0,25.8,3.7,34.1,11c8.3,7.4,13.2,17.1,14.6,29.4h-14.8c-1.3-9.2-5.1-16-11.3-20.4c-6.3-4.4-13.8-6.7-22.6-6.7     c-8.5,0-15.6,2-21.4,5.8c-5.8,3.9-10.1,9.1-13,15.7c-2.9,6.6-4.3,13.9-4.3,22c0,7.7,1.5,14.9,4.4,21.5c2.9,6.6,7.3,11.9,13.2,16     c5.9,4,13.2,6.1,22,6.1c9.3,0,17.1-2.3,23.4-7c6.3-4.6,10.2-11.3,11.5-20.1h14.8c-1,7.4-3.5,14.2-7.5,20.3     c-4,6.1-9.5,11-16.6,14.7C1242.2,507.3,1233.6,509.2,1223.5,509.2z"></path>				<path class="st0" d="M1286.3,506.5l38.9-108.1h24.6l40.1,108.1h-15l-11.8-32.3h-50.8l-11.5,32.3H1286.3z M1316.9,461.2h41.3     l-18.2-49.7h-5.5L1316.9,461.2z"></path>				<path class="st0" d="M1457.7,509.2c-9.9,0-18.3-1.7-25.2-5.2c-7-3.5-12.6-7.9-16.8-13.5c-4.2-5.5-7.4-11.5-9.3-18     c-2-6.5-3-12.7-3-18.7v-3.3c0-6.5,1-13,3-19.5c2-6.5,5.2-12.4,9.4-17.8c4.2-5.3,9.8-9.6,16.6-12.9c6.8-3.3,15-4.9,24.4-4.9     c14.4,0,25.8,3.7,34.1,11c8.3,7.4,13.2,17.1,14.6,29.4h-14.8c-1.3-9.2-5.1-16-11.3-20.4c-6.3-4.4-13.8-6.7-22.6-6.7     c-8.5,0-15.6,2-21.4,5.8c-5.8,3.9-10.1,9.1-13,15.7c-2.9,6.6-4.3,13.9-4.3,22c0,7.7,1.5,14.9,4.4,21.5c2.9,6.6,7.3,11.9,13.2,16     c5.9,4,13.2,6.1,22,6.1c9.3,0,17.1-2.3,23.4-7c6.3-4.6,10.2-11.3,11.5-20.1h14.8c-1,7.4-3.5,14.2-7.5,20.3     c-4,6.1-9.5,11-16.6,14.7C1476.4,507.3,1467.8,509.2,1457.7,509.2z M1456.9,543.2c-3.9,0-7.5-0.5-10.7-1.5v-10.1     c3.3,1,6.8,1.5,10.7,1.5c3.4,0,5.9-0.5,7.5-1.6c1.7-1,2.5-2.3,2.5-3.9c0-3.3-2.9-4.9-8.7-4.9h-5.9V505h9.5v8.7     c4.7,0.6,8.5,2,11.3,4.4c2.8,2.3,4.2,5.4,4.2,9.3c0,4.3-1.8,8.1-5.4,11.2C1468.3,541.7,1463.3,543.2,1456.9,543.2z"></path>				<path class="st0" d="M1520.5,506.5l38.9-108.1h24.6l40.1,108.1h-15l-11.8-32.3h-50.8l-11.5,32.3H1520.5z M1584.3,386.3     c-2.7,0-5-0.3-6.9-1c-1.9-0.7-3.7-1.5-5.3-2.4c-1.6-0.9-3.2-1.7-4.8-2.4c-1.6-0.7-3.6-1-5.8-1c-2.4,0-4.7,0.5-6.9,1.6     c-2.2,1-4,2.5-5.4,4.4l-2.7-9.2c1.4-2,3.4-3.7,6.1-5c2.7-1.4,5.7-2.1,9.2-2.1c2.7,0,5,0.3,6.9,1c1.9,0.7,3.7,1.5,5.3,2.4     c1.6,0.9,3.2,1.7,4.9,2.4c1.7,0.7,3.6,1,5.8,1c2.4,0,4.7-0.5,6.9-1.6s4-2.5,5.4-4.4l2.7,9.2c-1.5,2-3.5,3.7-6.1,5     C1590.8,385.6,1587.8,386.3,1584.3,386.3z M1551.2,461.2h41.3l-18.2-49.7h-5.5L1551.2,461.2z"></path>				<path class="st0" d="M1693.4,509.2c-9.7,0-18-1.7-25-5.2c-7-3.5-12.8-8-17.3-13.6c-4.5-5.6-7.9-11.6-10.1-18.1     c-2.2-6.4-3.3-12.6-3.3-18.5v-3.3c0-6.4,1.1-12.9,3.4-19.4c2.3-6.5,5.7-12.5,10.4-17.8c4.6-5.4,10.4-9.7,17.4-13     c7-3.3,15.2-4.9,24.7-4.9c9.5,0,17.7,1.6,24.7,4.9c7,3.3,12.8,7.6,17.4,13c4.6,5.4,8.1,11.3,10.4,17.8c2.3,6.5,3.4,13,3.4,19.4     v3.3c0,5.9-1.1,12.1-3.3,18.5c-2.2,6.4-5.6,12.4-10.1,18.1c-4.5,5.6-10.3,10.2-17.3,13.6     C1711.4,507.4,1703.1,509.2,1693.4,509.2z M1693.4,495.8c6.3,0,12-1.2,17.1-3.6c5.1-2.4,9.4-5.6,13-9.7     c3.6-4.1,6.3-8.7,8.1-13.9c1.9-5.2,2.8-10.6,2.8-16.4c0-8-1.7-15.3-5-21.8c-3.3-6.6-8-11.8-14.1-15.8     c-6.1-3.9-13.4-5.9-21.9-5.9c-8.4,0-15.7,2-21.8,5.9c-6.2,3.9-10.9,9.2-14.2,15.8c-3.3,6.6-5,13.8-5,21.8     c0,5.7,0.9,11.2,2.8,16.4c1.9,5.2,4.6,9.8,8.1,13.9c3.6,4.1,7.9,7.3,13,9.7C1681.4,494.7,1687.1,495.8,1693.4,495.8z"></path>			</g>			<g class="st1">				<path class="st0" d="M960.9,684.2V576.1h62.5v13h-48v33.6h44.9v13h-44.9v35.4h49.4v13H960.9z"></path>				<path class="st0" d="M1121.7,715.4c-5.3,0-10-0.8-13.9-2.3c-3.9-1.5-7-4.2-9.2-7.9c-2.2-3.8-3.3-8.9-3.3-15.4v-3.3     c-8.6-0.8-16-3-22.2-6.7c-6.2-3.7-11.3-8.2-15.3-13.6c-4-5.4-7-11.1-9-17.2c-2-6.1-3-11.9-3-17.5v-3.3c0-6.4,1.1-12.9,3.4-19.4     c2.3-6.5,5.7-12.5,10.4-17.8c4.6-5.4,10.4-9.7,17.4-13c7-3.3,15.2-4.9,24.6-4.9c9.5,0,17.7,1.6,24.7,4.9c7,3.3,12.8,7.6,17.4,13     c4.6,5.4,8.1,11.3,10.4,17.8c2.3,6.5,3.4,13,3.4,19.4v3.3c0,5.5-1,11.3-2.9,17.4c-1.9,6.1-4.9,11.8-8.9,17.2     c-4,5.4-9.1,9.9-15.2,13.6c-6.2,3.7-13.4,6-21.8,6.9v5.5c0,3.3,1,5.8,2.9,7.7c1.9,1.9,4.5,2.8,7.6,2.8h18.4v12.9H1121.7z      M1101.7,673.5c6.3,0,12-1.2,17.1-3.6c5.1-2.4,9.4-5.6,13-9.7c3.6-4.1,6.3-8.7,8.1-13.9c1.9-5.2,2.8-10.6,2.8-16.4     c0-8-1.7-15.3-5-21.8c-3.3-6.6-8-11.8-14.1-15.8c-6.1-3.9-13.4-5.9-21.9-5.9c-8.4,0-15.7,2-21.8,5.9     c-6.2,3.9-10.9,9.2-14.2,15.8c-3.3,6.6-5,13.8-5,21.8c0,5.7,0.9,11.2,2.8,16.4c1.9,5.2,4.6,9.8,8.1,13.9c3.6,4.1,7.9,7.3,13,9.7     C1089.7,672.3,1095.4,673.5,1101.7,673.5z"></path>				<path class="st0" d="M1228.6,686.8c-9.8,0-18-1.9-24.7-5.7c-6.7-3.8-11.7-9.1-15.1-16c-3.4-6.9-5.1-14.8-5.1-23.9v-65.1h14.5     V643c0,9.1,2.6,16.4,7.8,22.1c5.2,5.6,12.7,8.4,22.5,8.4c9.7,0,17.1-2.8,22.4-8.4c5.2-5.6,7.8-13,7.8-22.1v-66.9h14.5v65.1     c0,9.1-1.7,17.1-5,23.9c-3.4,6.9-8.3,12.2-15,16C1246.7,684.9,1238.4,686.8,1228.6,686.8z"></path>				<path class="st0" d="M1307.3,684.2V576.1h14.5v108.1H1307.3z"></path>				<path class="st0" d="M1357.9,684.2V575.5h33c13.2,0,23.3,3.1,30.1,9.3c6.9,6.2,10.3,14.5,10.3,25.1v2.4c0,10.5-3.4,18.8-10.3,25     c-6.9,6.2-16.9,9.3-30.1,9.3h-18.5v37.6H1357.9z M1393.6,588.2h-21.2v45.6h21.2c7.6,0,13.3-2.2,17.2-6.6     c3.8-4.4,5.8-9.8,5.8-16.2c0-6.5-1.9-11.9-5.8-16.3C1407,590.4,1401.2,588.2,1393.6,588.2z"></path>				<path class="st0" d="M1437.9,684.2l38.9-108.1h24.6l40.1,108.1h-15l-11.8-32.3H1464l-11.5,32.3H1437.9z M1468.5,638.9h41.3     l-18.2-49.7h-5.5L1468.5,638.9z"></path>				<path class="st0" d="M1565.8,684.2V576.1h19.2l32,72.1h2.4l31.8-72.1h19.4v108.1h-14.5v-89.6l-29.6,67.2h-17.8l-29.6-66.9v89.3     H1565.8z"></path>				<path class="st0" d="M1706.5,684.2V576.1h62.5v13h-48v33.6h44.9v13H1721v35.4h49.4v13H1706.5z"></path>				<path class="st0" d="M1799.7,684.2V576.1h23.7l54.9,95h1.8v-95h13.9v108.1h-24l-54.9-95h-1.8v95H1799.7z"></path>				<path class="st0" d="M1950.9,684.2v-95H1918v-13h80.2v13h-32.9v95H1950.9z"></path>				<path class="st0" d="M2067.4,686.8c-9.7,0-18-1.7-25-5.2c-7-3.5-12.8-8-17.3-13.6c-4.5-5.6-7.9-11.6-10.1-18.1     c-2.2-6.4-3.3-12.6-3.3-18.5v-3.3c0-6.4,1.1-12.9,3.4-19.4c2.3-6.5,5.7-12.5,10.4-17.8c4.6-5.4,10.4-9.7,17.4-13     c7-3.3,15.2-4.9,24.7-4.9c9.5,0,17.7,1.6,24.7,4.9c7,3.3,12.8,7.6,17.4,13c4.6,5.4,8.1,11.3,10.4,17.8c2.3,6.5,3.4,13,3.4,19.4     v3.3c0,5.9-1.1,12.1-3.3,18.5c-2.2,6.4-5.6,12.4-10.1,18.1c-4.5,5.6-10.3,10.2-17.3,13.6     C2085.4,685.1,2077.1,686.8,2067.4,686.8z M2067.4,673.5c6.3,0,12-1.2,17.1-3.6c5.1-2.4,9.4-5.6,13-9.7     c3.6-4.1,6.3-8.7,8.1-13.9c1.9-5.2,2.8-10.6,2.8-16.4c0-8-1.7-15.3-5-21.8c-3.3-6.6-8-11.8-14.1-15.8     c-6.1-3.9-13.4-5.9-21.9-5.9c-8.4,0-15.7,2-21.8,5.9c-6.2,3.9-10.9,9.2-14.2,15.8c-3.3,6.6-5,13.8-5,21.8     c0,5.7,0.9,11.2,2.8,16.4c1.9,5.2,4.6,9.8,8.1,13.9c3.6,4.1,7.9,7.3,13,9.7C2055.4,672.3,2061.1,673.5,2067.4,673.5z"></path>				<path class="st0" d="M2186.6,686.8c-9,0-16.6-1.5-22.9-4.4c-6.3-3-11.2-7.1-14.5-12.3c-3.4-5.2-5-11.2-5-17.8h14.5     c0,3.3,0.9,6.5,2.6,9.8c1.7,3.3,4.6,6,8.7,8.1c4.1,2.2,9.6,3.3,16.7,3.3c6.5,0,11.8-1,16-2.9s7.2-4.4,9.2-7.5     c2-3.1,3-6.5,3-10.1c0-4.4-1.9-8.1-5.8-11c-3.8-2.9-9.5-4.7-16.9-5.4l-12-1c-9.6-0.8-17.2-3.8-22.9-8.9     c-5.7-5.1-8.6-11.9-8.6-20.3c0-6.6,1.6-12.4,4.8-17.3c3.2-4.9,7.7-8.8,13.4-11.6c5.7-2.8,12.4-4.2,20-4.2     c7.5,0,14.1,1.4,19.8,4.1c5.7,2.8,10.2,6.6,13.4,11.6c3.2,5,4.8,10.9,4.8,17.8h-14.5c0-3.5-0.8-6.7-2.4-9.8     c-1.6-3.1-4.2-5.6-7.6-7.6c-3.5-2-7.9-3-13.5-3c-5.3,0-9.7,0.9-13.3,2.8c-3.5,1.9-6.1,4.3-7.8,7.3c-1.7,3-2.6,6.2-2.6,9.7     c0,3.9,1.5,7.5,4.6,10.5c3.1,3.1,7.6,4.8,13.6,5.3l12,1c11.1,1,19.8,4,26.3,9.1c6.5,5.1,9.7,12,9.7,20.7     c0,6.6-1.8,12.5-5.3,17.6c-3.6,5.1-8.5,9.1-15,12C2202.5,685.4,2195.1,686.8,2186.6,686.8z"></path>				<path class="st0" d="M2296.1,684.8V575.5h37c9.8,0,18.3,1.5,25.5,4.5c7.2,3,13.2,7.1,18,12.1c4.8,5.1,8.4,10.8,10.7,17     c2.4,6.3,3.6,12.7,3.6,19.2v3.3c0,6.3-1.2,12.6-3.6,19c-2.4,6.3-5.9,12-10.7,17.2c-4.8,5.1-10.8,9.3-18,12.4     c-7.2,3.1-15.7,4.7-25.5,4.7H2296.1z M2334.6,588.8h-24v82.6h24c8.7,0,16.1-1.8,22.3-5.5c6.2-3.7,10.9-8.6,14.2-14.9     c3.3-6.3,5-13.3,5-21.1c0-8.1-1.7-15.2-5-21.4c-3.3-6.2-8-11-14.2-14.5C2350.7,590.6,2343.3,588.8,2334.6,588.8z"></path>				<path class="st0" d="M2417.7,684.2V576.1h62.5v13h-48v33.6h44.9v13h-44.9v35.4h49.4v13H2417.7z"></path>				<path class="st0" d="M2570.2,684.2v-95h-32.9v-13h80.2v13h-32.9v95H2570.2z"></path>				<path class="st0" d="M2641.8,684.2V576.1h14.5v108.1H2641.8z"></path>			</g>		</g>	</g></g></svg>